Coordinates
version=1
nRows=19
nColumns=36
inDegrees=yes

Units are S.I. units (second, meters, Newtons, ...)
If the header above contains a line with 'inDegrees', this indicates whether rotational values are in degrees (yes) or radians (no).

endheader
time	pelvis_tilt	pelvis_list	pelvis_rotation	pelvis_tx	pelvis_ty	pelvis_tz	hip_flexion_r	hip_adduction_r	hip_rotation_r	knee_angle_r	knee_angle_r_beta	ankle_angle_r	subtalar_angle_r	mtp_angle_r	hip_flexion_l	hip_adduction_l	hip_rotation_l	knee_angle_l	knee_angle_l_beta	ankle_angle_l	subtalar_angle_l	mtp_angle_l	lumbar_extension	lumbar_bending	lumbar_rotation	arm_flex_r	arm_add_r	arm_rot_r	elbow_flex_r	pro_sup_r	arm_flex_l	arm_add_l	arm_rot_l	elbow_flex_l	pro_sup_l
      4.20000000	    -40.92758089	     -3.71158171	      0.87720078	      0.99411008	      0.57621731	     -0.60861170	    108.08951785	    -12.05069093	     -2.87857263	     98.95561992	      1.72710138	     30.97303425	     -7.69138066	     -7.49999987	    110.65173042	    -15.40450662	      8.46159179	     99.96501509	      1.74471865	     30.43110320	     -8.93673269	     -7.49999987	    -29.18738939	      1.91582172	      3.39397085	     89.79972235	    -28.18407949	     13.04232689	    103.92588749	     70.63131150	     82.78061469	    -36.71468441	     22.52697970	    107.62688998	     81.37089530
      4.21666670	    -40.56301018	     -3.66360672	      0.88836893	      1.01150482	      0.59497034	     -0.59445561	    105.30768543	    -11.59147802	     -3.19660561	     96.37625912	      1.68208304	     30.72661571	     -7.79084291	     -7.49999987	    107.80251378	    -15.70852554	      7.87272497	     97.47767581	      1.70130639	     30.60127927	     -8.78987396	     -7.49999987	    -28.65360368	      1.27764414	      3.45034080	     86.73762461	    -27.87616169	     10.93837493	    106.98150057	     70.63404674	     79.99412976	    -37.17614307	     19.90288572	    108.85303284	     81.38739469
      4.23333330	    -40.18229051	     -3.62388256	      0.82154694	      1.01390333	      0.61766610	     -0.60043324	    102.05807205	    -11.11641437	     -3.57862270	     93.17645992	      1.62623601	     30.56933409	     -7.67949039	     -7.49999987	    104.54158071	    -15.96250740	      7.15876478	     94.46844492	      1.64878540	     30.62083524	     -8.50361224	     -7.49999987	    -28.74607908	      1.09861430	      3.37858445	     84.01404475	    -28.45964951	     10.62545768	    106.23879155	     70.32102378	     78.32367942	    -37.07191995	     19.58370975	    108.26840891	     80.63859941
      4.25000000	    -39.86657458	     -3.32405365	      0.69670515	      1.02273672	      0.63501945	     -0.60996262	     98.74698208	    -10.76615838	     -3.76854696	     89.62280879	      1.56421310	     30.14181708	     -7.60247298	     -7.49999987	    100.91477094	    -16.04087270	      6.11327184	     91.12496774	      1.59043072	     30.47806476	     -8.24651091	     -7.49999987	    -28.29270974	      0.83965880	      3.60986275	     80.21150116	    -29.45483709	      7.62996606	    106.68928465	     72.21870679	     75.21872814	    -34.85805580	     17.68140486	    108.32358509	     83.38893346
      4.26666670	    -38.93185703	     -2.80463851	      0.59159246	      1.01885838	      0.64721906	     -0.61403135	     95.19487036	    -10.53109730	     -3.71000567	     86.23387242	      1.50506500	     29.58287029	     -7.45591151	     -7.49999987	     96.81950900	    -15.97979067	      4.85208969	     87.88669372	      1.53391217	     30.18723555	     -8.17083326	     -7.49999987	    -28.25530875	      0.58242716	      3.53941817	     79.35108375	    -29.70447819	      6.46966639	    106.71214797	     72.60413353	     73.96272630	    -34.49178944	     17.13745249	    108.89734537	     83.93004869
      4.28333330	    -38.20033742	     -2.27014313	      0.52119002	      1.02489455	      0.66876643	     -0.61801259	     91.73803525	    -10.49493717	     -3.72265427	     82.55189609	      1.44080239	     28.81102212	     -7.08112834	     -7.49999987	     92.81130167	    -15.67905970	      3.59256037	     84.33371077	      1.47190092	     29.59820624	     -7.95790827	     -7.49999987	    -28.36202527	      0.38390271	      3.12545727	     76.72305513	    -28.85056975	      5.60593713	    105.25960382	     79.67568311	     70.31937503	    -34.31401304	     13.93925589	    107.64298137	     90.24099863
      4.30000000	    -37.25359606	     -1.80361204	      0.36692586	      1.02945936	      0.68688860	     -0.61060476	     88.11839550	    -10.33152439	     -3.82382436	     78.89053930	      1.37689966	     28.04226631	     -6.39273262	     -7.49999987	     88.73208102	    -15.45121184	      2.55880399	     80.73702089	      1.40912684	     29.08084344	     -7.54857253	     -7.49999987	    -28.47555653	     -0.22367858	      2.84433100	     73.25566659	    -27.95083713	      5.08935718	    104.22506977	     78.50321790	     67.17927104	    -35.32805531	     13.42249595	    106.57377304	     88.08926939
      4.31666670	    -36.36441569	     -1.43527077	      0.24417982	      1.02936356	      0.69443667	     -0.61108622	     85.15941601	    -10.24617995	     -3.98477131	     75.99782754	      1.32641231	     27.24796953	     -5.95479856	     -7.49999987	     85.37646419	    -15.35049874	      1.61912436	     77.80658279	      1.35798105	     28.40220184	     -7.20232739	     -7.49999987	    -28.41850437	     -0.56423458	      1.76013769	     70.30045597	    -27.21355234	      4.11325905	    104.57786868	     78.80746801	     63.47070706	    -37.57809980	     11.89062803	    107.82108984	     87.99597428
      4.33333330	    -35.20169774	     -1.09498765	     -0.01790406	      1.04467513	      0.70104586	     -0.60395943	     82.07975708	     -9.87847560	     -4.06007041	     73.60981910	      1.28473371	     27.06947152	     -5.47241701	     -7.49999987	     81.84273239	    -15.37727707	      0.95612756	     75.27602570	      1.31381450	     28.32819954	     -6.61428113	     -7.49999987	    -27.37653885	     -1.22003289	      1.00841394	     65.29468834	    -26.58629176	      3.23710780	    105.80481850	     78.97876387	     57.18081826	    -38.52544887	      6.61627726	    109.37665679	     87.73892224
      4.35000000	    -34.08783053	     -0.63826472	     -0.29114655	      1.03980329	      0.71477172	     -0.60723943	     79.37530750	     -9.64233012	     -3.99030660	     71.44781928	      1.24699969	     26.67743138	     -5.07160518	     -7.49999987	     78.61245364	    -15.48063662	      0.04930587	     72.88678853	      1.27211444	     28.05200511	     -5.92265592	     -7.49999987	    -26.59502987	     -1.74219741	      0.96299126	     63.19899975	    -27.13289385	      3.24745566	    104.79183221	     79.23892096	     54.95840645	    -38.19145777	      5.22331475	    109.30029427	     87.52325591
      4.36666670	    -32.82839031	     -0.36982857	     -0.56642766	      1.04797607	      0.74124329	     -0.59673879	     75.73326841	     -9.23896893	     -4.28243962	     68.11195919	      1.18877795	     25.87374460	     -4.91679600	     -7.49999987	     74.64663217	    -15.62362605	     -0.88203100	     69.44303184	      1.21200955	     27.10777625	     -5.54261912	     -7.49999987	    -26.36682070	     -2.37976976	      0.28714470	     61.71668674	    -25.37839407	      5.13768295	    100.94539770	     80.86960120	     49.83280768	    -39.47583730	      3.07234911	    105.52311137	     86.19785330
      4.38333330	    -31.74059701	     -0.23379438	     -0.81233625	      1.05160208	      0.75122770	     -0.59385699	     72.48999417	     -8.77295084	     -4.58056611	     65.11636902	      1.13649504	     25.08110902	     -4.78634731	     -7.49999987	     71.09873771	    -15.98298691	     -1.93118894	     66.24416268	      1.15617875	     26.07051817	     -4.66587582	     -7.49999987	    -25.66403071	     -2.93563418	      0.65119562	     58.86861607	    -25.50984600	      5.03700297	     98.20866841	     84.47338239	     47.06429095	    -39.37958315	      3.74622532	    100.80463132	     86.87110365
      4.40000000	    -30.93372539	     -0.15851163	     -0.93499557	      1.05839154	      0.76037271	     -0.59636634	     69.59496274	     -8.52623157	     -5.08322335	     62.25982217	      1.08663889	     24.45951771	     -4.41539691	     -7.49999987	     67.90456569	    -16.10990120	     -2.82987186	     63.14131361	      1.10202382	     25.10758627	     -3.96880826	     -7.49999987	    -24.14228843	     -3.22564792	      0.73694386	     54.61587448	    -26.46054224	      5.52167347	     96.89696330	     84.49895020	     43.60663550	    -39.77660731	      3.96099429	     99.24904548	     86.88653003
      4.41666670	    -29.65133272	      0.35695626	     -1.19439387	      1.05809010	      0.76951604	     -0.59607060	     66.77726825	     -8.30331630	     -4.84202980	     59.99855119	      1.04717226	     23.68035167	     -4.51859226	     -7.49999987	     64.32815020	    -16.31503040	     -4.49576644	     60.37408080	      1.05372649	     24.49756167	     -2.99414591	     -7.49999987	    -22.76379472	     -3.82226187	      0.91165282	     50.50869322	    -26.14611226	      4.64216082	     93.64495956	     84.51840896	     40.31485997	    -38.47774100	      1.86270440	     94.63050395	     86.86555902
      4.43333330	    -28.72672199	      0.49932744	     -1.19511018	      1.06277336	      0.77814187	     -0.59134420	     64.25705395	     -8.18537085	     -5.18020826	     57.82734695	      1.00927760	     23.27127175	     -4.33462337	     -7.49999987	     61.45501152	    -16.41057651	     -5.60777713	     57.85657527	      1.00978773	     23.86196773	     -2.31792145	     -7.49999987	    -20.67683602	     -4.03434005	      1.30364931	     46.23091866	    -25.97429061	      4.05888462	     91.33730111	     84.82561450	     36.22455134	    -36.93705542	     -0.29159203	     91.14727832	     87.07845421
      4.45000000	    -27.64678908	      0.67034384	     -1.28410198	      1.06947669	      0.79584804	     -0.59411387	     61.18111319	     -8.15823367	     -5.74869602	     54.92850066	      0.95868319	     22.40615814	     -4.13353307	     -7.49999987	     58.00039943	    -16.31810293	     -6.81183713	     54.57740060	      0.95255534	     22.79432404	     -1.59182164	     -7.49999987	    -19.64803628	     -4.03079220	      0.82374843	     43.30672933	    -25.26314854	      4.92871769	     88.46424578	     89.86110306	     30.97382065	    -34.98544120	     -4.10709596	     88.40648885	     92.22615609
      4.46666670	    -26.16159435	      1.01632672	     -1.42214450	      1.07690714	      0.80905643	     -0.59686328	     57.49573134	     -8.29549907	     -6.23187005	     51.75017153	      0.90321088	     21.37677103	     -3.71744222	     -7.49999987	     53.67704113	    -15.91763411	     -8.27819075	     50.77358885	      0.88616630	     21.58782764	     -0.85210385	     -7.49999987	    -18.59247135	     -4.40986320	      1.14143513	     40.08731158	    -25.18776765	      6.53090509	     85.28536091	     90.37325110	     27.76055876	    -32.97442405	     -3.80655490	     84.37861804	     92.63509186
      4.48333330	    -24.30813895	      1.51474571	     -1.64318579	      1.09028632	      0.82316321	     -0.60359397	     53.12869922	     -8.57912894	     -6.64542092	     48.08072244	      0.83916691	     20.06720206	     -3.39404613	     -7.49999987	     48.43405556	    -15.15498600	    -10.02891093	     46.21141019	      0.80654126	     20.01722854	     -0.18105139	     -7.49999987	    -18.10382709	     -4.76822239	      1.52502610	     35.63826730	    -25.38141238	      7.15504782	     82.06335206	     90.55831445	     24.16520607	    -30.02668851	     -4.69050849	     80.51018919	     92.93831118
      4.50000000	    -22.44391745	      1.80192029	     -1.85319904	      1.10096576	      0.83242419	     -0.60203350	     48.55897370	     -8.71562275	     -7.25276852	     44.28155674	      0.77285896	     18.93889652	     -3.02053788	     -7.49999987	     43.21082939	    -14.42695441	    -11.55239180	     41.74065812	      0.72851192	     18.60522986	      0.91096952	     -7.49999987	    -17.24692733	     -5.12549008	      1.56989957	     31.74632330	    -24.92989821	      7.61808207	     78.77817269	     91.84533737	     20.03431808	    -27.94314171	     -6.80641907	     78.18130905	     96.97639311
